<mxfile host="app.diagrams.net" agent="Mozilla/5.0 (Windows NT 10.0; Win64; x64) AppleWebKit/537.36 (KHTML, like Gecko) Chrome/135.0.0.0 Safari/537.36" version="26.2.14">
  <diagram name="Page-1" id="IG8jHDU7k6NiExgm4UEW">
    <mxGraphModel dx="1042" dy="1662" grid="1" gridSize="10" guides="1" tooltips="1" connect="1" arrows="1" fold="1" page="1" pageScale="1" pageWidth="850" pageHeight="1100" math="0" shadow="0">
      <root>
        <mxCell id="0" />
        <mxCell id="1" parent="0" />
        <mxCell id="8sUa2zZufn3kIB9HhgjA-1" value="" style="swimlane;startSize=0;container=0;" vertex="1" parent="1">
          <mxGeometry x="107" y="-981" width="380" height="340" as="geometry" />
        </mxCell>
        <mxCell id="8sUa2zZufn3kIB9HhgjA-2" value="Student" style="shape=umlActor;verticalLabelPosition=bottom;verticalAlign=top;html=1;fontSize=14;" vertex="1" parent="8sUa2zZufn3kIB9HhgjA-1">
          <mxGeometry x="30" y="151" width="30" height="60" as="geometry" />
        </mxCell>
        <mxCell id="8sUa2zZufn3kIB9HhgjA-3" value="" style="swimlane;startSize=0;" vertex="1" parent="8sUa2zZufn3kIB9HhgjA-1">
          <mxGeometry x="103" y="58" width="230" height="235" as="geometry" />
        </mxCell>
        <mxCell id="8sUa2zZufn3kIB9HhgjA-4" value="Earn Rewards" style="ellipse;whiteSpace=wrap;html=1;" vertex="1" parent="1">
          <mxGeometry x="254" y="-839" width="143" height="62" as="geometry" />
        </mxCell>
        <mxCell id="8sUa2zZufn3kIB9HhgjA-5" value="" style="endArrow=none;html=1;rounded=0;startArrow=oval;startFill=1;exitX=1;exitY=0.3333333333333333;exitDx=0;exitDy=0;exitPerimeter=0;" edge="1" parent="1">
          <mxGeometry width="50" height="50" relative="1" as="geometry">
            <mxPoint x="170" y="-810" as="sourcePoint" />
            <mxPoint x="255" y="-810" as="targetPoint" />
          </mxGeometry>
        </mxCell>
      </root>
    </mxGraphModel>
  </diagram>
</mxfile>
